REM DIRINDEX 1\2,1\3
REM DIRNAME folder01,folder02,folder03
TITLE ""
FILE "1041-1060.mp3" MP3
  TRACK 01 AUDIO
    TITLE "0:"
    INDEX 01 00:00:00
  TRACK 02 AUDIO
    TITLE "2:cjc039_1081"
    INDEX 01 00:00:25
  TRACK 03 AUDIO
    TITLE "0:"
    INDEX 01 00:01:44
  TRACK 04 AUDIO
    TITLE "3:cjc039_1082"
    INDEX 01 00:02:24
  TRACK 05 AUDIO
    TITLE "0:"
    INDEX 01 00:05:34
  TRACK 06 AUDIO
    TITLE "2:cjc039_1083"
    INDEX 01 00:07:09
  TRACK 07 AUDIO
    TITLE "0:"
    INDEX 01 00:08:42
  TRACK 08 AUDIO
    TITLE "3:cjc039_1084"
    INDEX 01 00:09:14
  TRACK 09 AUDIO
    TITLE "0:"
    INDEX 01 00:13:24
  TRACK 10 AUDIO
    TITLE "2:cjc039_1085"
    INDEX 01 00:14:68
  TRACK 11 AUDIO
    TITLE "0:"
    INDEX 01 00:16:04
  TRACK 12 AUDIO
    TITLE "3:cjc039_1086"
    INDEX 01 00:16:55
  TRACK 13 AUDIO
    TITLE "0:"
    INDEX 01 00:20:02
  TRACK 14 AUDIO
    TITLE "2:cjc039_1087"
    INDEX 01 00:21:51
  TRACK 15 AUDIO
    TITLE "0:"
    INDEX 01 00:22:64
  TRACK 16 AUDIO
    TITLE "3:cjc039_1088"
    INDEX 01 00:23:42
  TRACK 17 AUDIO
    TITLE "0:"
    INDEX 01 00:28:12
  TRACK 18 AUDIO
    TITLE "2:cjc039_1089"
    INDEX 01 00:29:62
  TRACK 19 AUDIO
    TITLE "0:"
    INDEX 01 00:30:59
  TRACK 20 AUDIO
    TITLE "3:cjc039_1090"
    INDEX 01 00:31:39
  TRACK 21 AUDIO
    TITLE "0:"
    INDEX 01 00:34:57
  TRACK 22 AUDIO
    TITLE "2:cjc039_1091"
    INDEX 01 00:36:29
  TRACK 23 AUDIO
    TITLE "0:"
    INDEX 01 00:37:71
  TRACK 24 AUDIO
    TITLE "3:cjc039_1092"
    INDEX 01 00:38:47
  TRACK 25 AUDIO
    TITLE "0:"
    INDEX 01 00:42:41
  TRACK 26 AUDIO
    TITLE "2:cjc039_1093"
    INDEX 01 00:44:18
  TRACK 27 AUDIO
    TITLE "0:"
    INDEX 01 00:45:37
  TRACK 28 AUDIO
    TITLE "3:cjc039_1094"
    INDEX 01 00:46:13
  TRACK 29 AUDIO
    TITLE "0:"
    INDEX 01 00:50:19
  TRACK 30 AUDIO
    TITLE "2:cjc039_1095"
    INDEX 01 00:51:69
  TRACK 31 AUDIO
    TITLE "0:"
    INDEX 01 00:53:33
  TRACK 32 AUDIO
    TITLE "3:cjc039_1096"
    INDEX 01 00:54:05
  TRACK 33 AUDIO
    TITLE "0:"
    INDEX 01 00:58:38
  TRACK 34 AUDIO
    TITLE "2:cjc039_1097"
    INDEX 01 01:00:10
  TRACK 35 AUDIO
    TITLE "0:"
    INDEX 01 01:01:19
  TRACK 36 AUDIO
    TITLE "3:cjc039_1098"
    INDEX 01 01:01:74
  TRACK 37 AUDIO
    TITLE "0:"
    INDEX 01 01:05:42
  TRACK 38 AUDIO
    TITLE "2:cjc039_1099"
    INDEX 01 01:07:17
  TRACK 39 AUDIO
    TITLE "0:"
    INDEX 01 01:08:44
  TRACK 40 AUDIO
    TITLE "3:cjc039_1100"
    INDEX 01 01:09:16
  TRACK 41 AUDIO
    TITLE "0:"
    INDEX 01 01:13:26
  TRACK 42 AUDIO
    TITLE "2:cjc039_1101"
    INDEX 01 01:15:03
  TRACK 43 AUDIO
    TITLE "0:"
    INDEX 01 01:16:24
  TRACK 44 AUDIO
    TITLE "3:cjc039_1102"
    INDEX 01 01:17:00
  TRACK 45 AUDIO
    TITLE "0:"
    INDEX 01 01:20:40
  TRACK 46 AUDIO
    TITLE "2:cjc039_1103"
    INDEX 01 01:22:15
  TRACK 47 AUDIO
    TITLE "0:"
    INDEX 01 01:23:56
  TRACK 48 AUDIO
    TITLE "3:cjc039_1104"
    INDEX 01 01:24:28
  TRACK 49 AUDIO
    TITLE "0:"
    INDEX 01 01:28:55
  TRACK 50 AUDIO
    TITLE "2:cjc039_1105"
    INDEX 01 01:30:34
  TRACK 51 AUDIO
    TITLE "0:"
    INDEX 01 01:31:41
  TRACK 52 AUDIO
    TITLE "3:cjc039_1106"
    INDEX 01 01:32:19
  TRACK 53 AUDIO
    TITLE "0:"
    INDEX 01 01:36:07
  TRACK 54 AUDIO
    TITLE "2:cjc039_1107"
    INDEX 01 01:37:60
  TRACK 55 AUDIO
    TITLE "0:"
    INDEX 01 01:38:67
  TRACK 56 AUDIO
    TITLE "3:cjc039_1108"
    INDEX 01 01:39:47
  TRACK 57 AUDIO
    TITLE "0:"
    INDEX 01 01:43:23
  TRACK 58 AUDIO
    TITLE "2:cjc039_1109"
    INDEX 01 01:45:00
  TRACK 59 AUDIO
    TITLE "0:"
    INDEX 01 01:46:08
  TRACK 60 AUDIO
    TITLE "3:cjc039_1110"
    INDEX 01 01:46:63
  TRACK 61 AUDIO
    TITLE "0:"
    INDEX 01 01:50:27
  TRACK 62 AUDIO
    TITLE "2:cjc039_1111"
    INDEX 01 01:52:02
  TRACK 63 AUDIO
    TITLE "0:"
    INDEX 01 01:53:29
  TRACK 64 AUDIO
    TITLE "3:cjc039_1112"
    INDEX 01 01:54:03
  TRACK 65 AUDIO
    TITLE "0:"
    INDEX 01 01:57:62
  TRACK 66 AUDIO
    TITLE "2:cjc039_1113"
    INDEX 01 01:59:44
  TRACK 67 AUDIO
    TITLE "0:"
    INDEX 01 02:00:69
  TRACK 68 AUDIO
    TITLE "3:cjc039_1114"
    INDEX 01 02:01:48
  TRACK 69 AUDIO
    TITLE "0:"
    INDEX 01 02:05:33
  TRACK 70 AUDIO
    TITLE "2:cjc039_1115"
    INDEX 01 02:07:00
  TRACK 71 AUDIO
    TITLE "0:"
    INDEX 01 02:08:23
  TRACK 72 AUDIO
    TITLE "3:cjc039_1116"
    INDEX 01 02:08:70
  TRACK 73 AUDIO
    TITLE "0:"
    INDEX 01 02:13:42
  TRACK 74 AUDIO
    TITLE "2:cjc039_1117"
    INDEX 01 02:15:17
  TRACK 75 AUDIO
    TITLE "0:"
    INDEX 01 02:16:32
  TRACK 76 AUDIO
    TITLE "3:cjc039_1118"
    INDEX 01 02:17:08
  TRACK 77 AUDIO
    TITLE "0:"
    INDEX 01 02:21:10
  TRACK 78 AUDIO
    TITLE "2:cjc039_1119"
    INDEX 01 02:22:60
  TRACK 79 AUDIO
    TITLE "0:"
    INDEX 01 02:23:72
  TRACK 80 AUDIO
    TITLE "3:cjc039_1120"
    INDEX 01 02:24:46
  TRACK 81 AUDIO
    TITLE "0:"
    INDEX 01 02:28:08
